# xmcd
#
# Track frame offsets:
#	150
#	4732
#	21152
#	37127
#	55915
#	73647
#	91685
#	114177
#	134870
#	152052
#	170410
#	192520
#	211317
#	227032
#
# Disc length: 3081 seconds
#
# Revision: 0
# Processed by: cddbd v1.4PL0 Copyright (c) Steve Scherf et al.
# Submitted via: EasyCDDAExtractor 4.5.2.1
#
DISCID=be0c070e
DTITLE=NTyce
DYEAR=1900
DGENRE=Pop/Funk
TTITLE0=NTYCE Intro
TTITLE1=Whatever
TTITLE2=Baby Love
TTITLE3=Telefunkin
TTITLE4=Boom Boom
TTITLE5=Koo Koo
TTITLE6=Ntyce You
TTITLE7=Raise Your Hands
TTITLE8=This Song For You
TTITLE9=We Come To Party
TTITLE10=All Day Every Day
TTITLE11=Sunshine
TTITLE12=Hey DJ
TTITLE13=Outro
EXTD=
EXTT0=
EXTT1=
EXTT2=
EXTT3=
EXTT4=
EXTT5=
EXTT6=
EXTT7=
EXTT8=
EXTT9=
EXTT10=
EXTT11=
EXTT12=
EXTT13=
PLAYORDER=
